<svg width="17" height="17" viewBox="0 0 17 17" fill="none" xmlns="http://www.w3.org/2000/svg">
<path d="M12.9404 2.72656H3.40515C2.65284 2.72656 2.04297 3.33643 2.04297 4.08874V13.624C2.04297 14.3763 2.65284 14.9862 3.40515 14.9862H12.9404C13.6927 14.9862 14.3026 14.3763 14.3026 13.624V4.08874C14.3026 3.33643 13.6927 2.72656 12.9404 2.72656Z" stroke="#F97316" stroke-width="1.22596" stroke-linecap="round" stroke-linejoin="round"/>
<path d="M10.8965 1.36328V4.08764" stroke="#F97316" stroke-width="1.22596" stroke-linecap="round" stroke-linejoin="round"/>
<path d="M5.44922 1.36328V4.08764" stroke="#F97316" stroke-width="1.22596" stroke-linecap="round" stroke-linejoin="round"/>
<path d="M2.04297 6.8125H14.3026" stroke="#F97316" stroke-width="1.22596" stroke-linecap="round" stroke-linejoin="round"/>
<path d="M10.8973 12.2634C11.6496 12.2634 12.2595 11.6536 12.2595 10.9012C12.2595 10.1489 11.6496 9.53906 10.8973 9.53906C10.145 9.53906 9.53516 10.1489 9.53516 10.9012C9.53516 11.6536 10.145 12.2634 10.8973 12.2634Z" stroke="#F97316" stroke-width="1.22596" stroke-linecap="round" stroke-linejoin="round"/>
<path d="M10.8965 9.53906V10.9012L11.5776 11.5823" stroke="#F97316" stroke-width="1.22596" stroke-linecap="round" stroke-linejoin="round"/>
</svg>
