<svg width="17" height="17" viewBox="0 0 17 17" fill="none" xmlns="http://www.w3.org/2000/svg">
<g clip-path="url(#clip0_1374_5608)">
<path d="M14.9851 11.5227V13.566C14.9858 13.7557 14.947 13.9434 14.871 14.1172C14.795 14.291 14.6836 14.447 14.5438 14.5753C14.404 14.7035 14.239 14.8011 14.0593 14.8619C13.8796 14.9227 13.6892 14.9452 13.5003 14.9282C11.4045 14.7004 9.39128 13.9843 7.6225 12.8372C5.78685 11.6682 4.26658 10.0661 3.19541 8.17174C2.02677 6.36545 1.30748 4.30565 1.09766 2.16453C1.09766 1.42214 1.70383 0.679754 2.45984 0.679754H4.5031C4.83364 0.6765 5.15408 0.793549 5.40471 1.00908C5.65533 1.22462 5.81902 1.52393 5.86528 1.85123C5.95178 2.50507 6.11116 3.14734 6.34205 3.76509C6.43368 4.00887 6.45352 4.27381 6.39919 4.52851C6.34487 4.78321 6.21868 5.01701 6.03556 5.20219L5.38852 6.05355C6.36341 7.77907 7.7904 9.20607 9.51593 10.181L10.3809 9.60203C10.5661 9.41891 10.7999 9.29271 11.0546 9.23839C11.3093 9.18407 11.5742 9.2039 11.818 9.29554C12.4358 9.52643 13.078 9.6858 13.7319 9.7723C13.9395 9.78026 14.1425 9.8356 14.3254 9.93408C14.5083 10.0326 14.6663 10.1716 14.7873 10.3405C14.9082 10.5094 14.9889 10.7038 15.0232 10.9087C15.0575 11.1136 15.0444 11.3236 14.9851 11.5227Z" stroke="#F97316" stroke-width="1.22596" stroke-linecap="round" stroke-linejoin="round"/>
</g>
<defs>
<clipPath id="clip0_1374_5608">
<rect width="16.3462" height="16.3462" fill="white"/>
</clipPath>
</defs>
</svg>
