<svg width="24" height="24" viewBox="0 0 24 24" fill="none" xmlns="http://www.w3.org/2000/svg">
<path d="M8.6094 4.21037C8.89665 4.32512 9.08565 4.60337 9.08565 4.91312V10.5404C9.08565 10.7413 9.00584 10.9339 8.86378 11.076C8.72172 11.2181 8.52905 11.2979 8.32815 11.2979C8.12725 11.2979 7.93457 11.2181 7.79252 11.076C7.65046 10.9339 7.57065 10.7413 7.57065 10.5404V6.90587C7.57051 6.89811 7.56811 6.89056 7.56373 6.88415C7.55935 6.87774 7.5532 6.87276 7.54602 6.86981C7.53884 6.86686 7.53096 6.86607 7.52334 6.86755C7.51572 6.86902 7.5087 6.8727 7.50315 6.87812C7.4353 6.95295 7.35318 7.01346 7.2616 7.05609C7.17002 7.09871 7.07084 7.12259 6.9699 7.12632C6.86896 7.13005 6.76829 7.11355 6.67381 7.07779C6.57934 7.04204 6.49298 6.98775 6.4198 6.91812C6.34662 6.84849 6.2881 6.76493 6.24769 6.67235C6.20729 6.57977 6.1858 6.48005 6.18451 6.37905C6.18321 6.27804 6.20213 6.1778 6.24015 6.08422C6.27817 5.99063 6.33453 5.9056 6.4059 5.83412L7.7799 4.39112C7.8843 4.28159 8.0191 4.20583 8.16695 4.17362C8.31479 4.1414 8.4689 4.1542 8.6094 4.21037ZM15.6219 5.67137C15.4876 5.67812 15.2761 5.74412 15.0376 6.02762C14.9739 6.10469 14.8956 6.16839 14.8071 6.21503C14.7186 6.26167 14.6218 6.29033 14.5222 6.29936C14.4226 6.30839 14.3222 6.29761 14.2268 6.26763C14.1314 6.23766 14.0429 6.18909 13.9663 6.12472C13.8898 6.06036 13.8267 5.98148 13.7808 5.89262C13.7349 5.80377 13.7071 5.70671 13.6989 5.60704C13.6907 5.50737 13.7023 5.40706 13.7331 5.3119C13.7638 5.21674 13.8131 5.12862 13.8781 5.05262C14.3446 4.49762 14.9296 4.18937 15.5461 4.15862C15.8334 4.14547 16.1202 4.19275 16.388 4.2974C16.6558 4.40204 16.8987 4.56172 17.1009 4.76612C17.9259 5.58887 18.0279 6.99287 16.9704 8.12837C16.6629 8.45837 16.2901 8.84837 15.9129 9.24212V9.24287L15.5476 9.62387C15.5348 9.6371 15.5262 9.65383 15.5228 9.67195C15.5194 9.69007 15.5215 9.70879 15.5287 9.72575C15.5359 9.74272 15.5479 9.75719 15.5633 9.76735C15.5787 9.7775 15.5967 9.7829 15.6151 9.78287H17.1714C17.3723 9.78287 17.565 9.86268 17.707 10.0047C17.8491 10.1468 17.9289 10.3395 17.9289 10.5404C17.9289 10.7413 17.8491 10.9339 17.707 11.076C17.565 11.2181 17.3723 11.2979 17.1714 11.2979H14.1339C13.3194 11.2979 12.8319 10.3259 13.4146 9.68387C13.7836 9.27737 14.3304 8.70512 14.8524 8.15912C15.2274 7.76687 15.5889 7.38887 15.8619 7.09562C16.1506 6.78587 16.2256 6.51437 16.2264 6.32387C16.2278 6.23408 16.2113 6.14491 16.1778 6.06159C16.1443 5.97827 16.0945 5.90246 16.0314 5.83862C15.9788 5.78341 15.9151 5.73997 15.8446 5.71114C15.774 5.68231 15.6981 5.66876 15.6219 5.67137ZM7.51365 14.6084C7.56042 14.5107 7.63007 14.4257 7.71668 14.3607C7.80328 14.2956 7.9043 14.2524 8.01116 14.2347C8.11802 14.2171 8.22757 14.2254 8.33051 14.2591C8.43346 14.2928 8.52676 14.3508 8.60251 14.4282C8.67826 14.5056 8.73422 14.6002 8.76564 14.7038C8.79707 14.8075 8.80303 14.9172 8.78302 15.0236C8.76302 15.1301 8.71763 15.2301 8.65072 15.3153C8.58381 15.4005 8.49734 15.4682 8.39865 15.5129C8.38997 15.5171 8.38055 15.5197 8.3709 15.5204C8.18967 15.5394 8.02139 15.6232 7.8969 15.7563C7.77242 15.8893 7.70008 16.0628 7.69316 16.2449C7.68623 16.427 7.74518 16.6055 7.85919 16.7477C7.97321 16.8898 8.13464 16.9861 8.3139 17.0189C8.42534 17.052 8.52632 17.1134 8.60704 17.1971C8.68775 17.2808 8.74545 17.3839 8.77454 17.4965C8.80363 17.609 8.80311 17.7272 8.77304 17.8395C8.74297 17.9518 8.68437 18.0545 8.60293 18.1374C8.52149 18.2204 8.41998 18.2809 8.30825 18.3131C8.19652 18.3453 8.07837 18.348 7.96528 18.321C7.85219 18.294 7.74799 18.2383 7.66281 18.1591C7.57763 18.08 7.51436 17.9802 7.47915 17.8694C7.44958 17.7739 7.40141 17.6852 7.33741 17.6084C7.27341 17.5316 7.19485 17.4683 7.10625 17.422C7.01765 17.3757 6.92077 17.3474 6.82119 17.3388C6.72161 17.3301 6.6213 17.3413 6.52604 17.3715C6.43078 17.4018 6.34246 17.4507 6.26616 17.5152C6.18987 17.5798 6.12711 17.6589 6.0815 17.7478C6.03589 17.8367 6.00834 17.9338 6.00042 18.0335C5.99251 18.1331 6.0044 18.2333 6.0354 18.3284C6.1321 18.6322 6.29401 18.9112 6.50981 19.1459C6.72561 19.3806 6.99008 19.5653 7.28473 19.6871C7.57938 19.8089 7.89708 19.8649 8.21561 19.8511C8.53414 19.8373 8.84581 19.754 9.12881 19.6072C9.41181 19.4603 9.6593 19.2534 9.85398 19.0009C10.0487 18.7484 10.1858 18.4564 10.2559 18.1454C10.3259 17.8343 10.3271 17.5118 10.2595 17.2002C10.1918 16.8886 10.0569 16.5956 9.86415 16.3416C9.85077 16.3245 9.8435 16.3034 9.8435 16.2816C9.8435 16.2599 9.85077 16.2388 9.86415 16.2216C10.0496 15.978 10.1819 15.6982 10.2524 15.4003C10.323 15.1024 10.3302 14.793 10.2737 14.4921C10.2172 14.1912 10.0982 13.9055 9.92439 13.6534C9.75057 13.4014 9.5258 13.1887 9.26461 13.0289C9.00342 12.8692 8.71163 12.7661 8.40808 12.7261C8.10453 12.6862 7.79599 12.7105 7.50239 12.7973C7.20879 12.8841 6.93667 13.0315 6.70362 13.23C6.47056 13.4286 6.28175 13.6738 6.1494 13.9499C6.10621 14.0395 6.0811 14.1368 6.0755 14.2361C6.06989 14.3354 6.08391 14.4349 6.11675 14.5288C6.18307 14.7185 6.32201 14.874 6.50302 14.9612C6.68403 15.0485 6.89228 15.0602 7.08195 14.9939C7.17586 14.9611 7.26239 14.91 7.33659 14.8438C7.41079 14.7775 7.47121 14.6972 7.5144 14.6076M15.3661 13.6926C15.4149 13.4977 15.3842 13.2914 15.2808 13.1191C15.1774 12.9468 15.0098 12.8226 14.8149 12.7739C14.62 12.7251 14.4137 12.7558 14.2414 12.8592C14.0691 12.9626 13.9449 13.1302 13.8961 13.3251L13.1019 16.5089C13.074 16.6206 13.0719 16.7371 13.0958 16.8498C13.1196 16.9624 13.1689 17.0681 13.2397 17.1588C13.3106 17.2496 13.4012 17.323 13.5047 17.3734C13.6082 17.4239 13.7218 17.4501 13.8369 17.4501H15.5349C15.5866 17.4501 15.6286 17.4921 15.6286 17.5439V19.0836C15.6286 19.2845 15.7085 19.4772 15.8505 19.6193C15.9926 19.7613 16.1852 19.8411 16.3861 19.8411C16.5871 19.8411 16.7797 19.7613 16.9218 19.6193C17.0638 19.4772 17.1436 19.2845 17.1436 19.0836V17.5109C17.1436 17.4659 17.1751 17.4284 17.2179 17.4156C17.372 17.3675 17.5066 17.2713 17.6022 17.1413C17.6978 17.0112 17.7494 16.854 17.7494 16.6926C17.7494 16.5312 17.6978 16.374 17.6022 16.2439C17.5066 16.1139 17.372 16.0178 17.2179 15.9696C17.197 15.9634 17.1785 15.9508 17.1651 15.9336C17.1516 15.9164 17.1439 15.8954 17.1429 15.8736V15.4566C17.1367 15.2599 17.0542 15.0734 16.9129 14.9365C16.7716 14.7995 16.5825 14.7229 16.3858 14.7229C16.189 14.7229 15.9999 14.7995 15.8586 14.9365C15.7173 15.0734 15.6348 15.2599 15.6286 15.4566V15.8414C15.6286 15.8662 15.6188 15.8901 15.6012 15.9077C15.5836 15.9252 15.5598 15.9351 15.5349 15.9351H14.9266C14.9124 15.9351 14.8984 15.9318 14.8857 15.9256C14.8729 15.9193 14.8618 15.9103 14.853 15.8991C14.8443 15.8879 14.8382 15.8748 14.8352 15.8609C14.8323 15.847 14.8325 15.8327 14.8359 15.8189L15.3661 13.6926Z" fill="#9DA4AE"/>
<path d="M4.5 0.75C4.00754 0.75 3.51991 0.846997 3.06494 1.03545C2.60997 1.22391 2.19657 1.50013 1.84835 1.84835C1.14509 2.55161 0.75 3.50544 0.75 4.5V19.5C0.75 20.4946 1.14509 21.4484 1.84835 22.1516C2.19657 22.4999 2.60997 22.7761 3.06494 22.9645C3.51991 23.153 4.00754 23.25 4.5 23.25H19.5C20.4946 23.25 21.4484 22.8549 22.1516 22.1516C22.8549 21.4484 23.25 20.4946 23.25 19.5V4.5C23.25 4.00754 23.153 3.51991 22.9645 3.06494C22.7761 2.60997 22.4999 2.19657 22.1516 1.84835C21.8034 1.50013 21.39 1.22391 20.9351 1.03545C20.4801 0.846997 19.9925 0.75 19.5 0.75H4.5ZM2.25 4.5C2.25 3.90326 2.48705 3.33097 2.90901 2.90901C3.33097 2.48705 3.90326 2.25 4.5 2.25H19.5C20.0967 2.25 20.669 2.48705 21.091 2.90901C21.5129 3.33097 21.75 3.90326 21.75 4.5V19.5C21.75 20.0967 21.5129 20.669 21.091 21.091C20.669 21.5129 20.0967 21.75 19.5 21.75H4.5C3.90326 21.75 3.33097 21.5129 2.90901 21.091C2.48705 20.669 2.25 20.0967 2.25 19.5V4.5Z" fill="#9DA4AE"/>
</svg>
