<svg width="20" height="20" viewBox="0 0 20 20" fill="none" xmlns="http://www.w3.org/2000/svg">
<path fill-rule="evenodd" clip-rule="evenodd" d="M16.5614 10.2511L9.86722 16.9161C8.97504 17.7871 7.7751 18.2708 6.52825 18.262C5.2814 18.2532 4.08842 17.7526 3.20867 16.869C2.32891 15.9854 1.83349 14.7902 1.8301 13.5433C1.8267 12.2964 2.31562 11.0986 3.19055 10.2103L9.88472 3.54525C10.7769 2.6742 11.9768 2.19051 13.2237 2.19934C14.4705 2.20816 15.6635 2.70879 16.5433 3.59239C17.423 4.47599 17.9185 5.67114 17.9218 6.91802C17.9252 8.1649 17.4363 9.36272 16.5614 10.2511ZM15.3947 4.73609C14.8211 4.16074 14.0426 3.83655 13.2301 3.83467C12.4177 3.8328 11.6377 4.1534 11.0614 4.72609L4.36639 11.3911C3.79032 11.9646 3.46567 12.7435 3.46387 13.5564C3.46208 14.3693 3.78327 15.1496 4.3568 15.7257C4.93033 16.3017 5.70922 16.6264 6.52211 16.6282C7.335 16.63 8.11531 16.3088 8.69139 15.7353L15.3856 9.07025C15.9612 8.49658 16.2855 7.7179 16.2874 6.90524C16.2893 6.09258 15.9685 5.31241 15.3956 4.73609H15.3947Z" fill="#F2F2F7"/>
<path fill-rule="evenodd" clip-rule="evenodd" d="M6.76547 7.10336C6.92175 6.94714 7.13367 6.85938 7.35464 6.85938C7.57561 6.85938 7.78753 6.94714 7.94381 7.10336L12.9855 12.145C13.1373 12.3022 13.2213 12.5127 13.2194 12.7312C13.2175 12.9497 13.1298 13.1587 12.9753 13.3132C12.8208 13.4677 12.6118 13.5554 12.3933 13.5573C12.1748 13.5592 11.9643 13.4752 11.8071 13.3234L6.76547 8.2817C6.60925 8.12542 6.52148 7.9135 6.52148 7.69253C6.52148 7.47156 6.60925 7.25964 6.76547 7.10336Z" fill="#F2F2F7"/>
</svg>
