<svg width="20" height="20" viewBox="0 0 20 20" fill="none" xmlns="http://www.w3.org/2000/svg">
<path d="M16.666 9.9987C16.4657 10.0001 16.2672 10.0377 16.0802 10.1095L14.0818 8.4737C14.131 8.29536 14.166 8.11036 14.166 7.91536C14.166 6.76036 13.2377 5.83203 12.0827 5.83203C10.9277 5.83203 9.99935 6.76036 9.99935 7.91536C9.99935 8.24536 10.0827 8.55286 10.2177 8.82953L7.79352 11.6945C7.69652 11.6761 7.59807 11.6664 7.49935 11.6654C7.35018 11.6654 7.20935 11.6904 7.07268 11.727L4.93685 9.5912C4.97435 9.45536 4.99935 9.31453 4.99935 9.16536C4.99935 8.24203 4.25602 7.4987 3.33268 7.4987C2.40935 7.4987 1.66602 8.24203 1.66602 9.16536C1.66602 10.0887 2.40935 10.832 3.33268 10.832C3.48185 10.832 3.62268 10.807 3.75935 10.7704L5.89518 12.9062C5.85603 13.0448 5.83502 13.188 5.83268 13.332C5.83268 14.2554 6.57602 14.9987 7.49935 14.9987C8.42268 14.9987 9.16602 14.2554 9.16602 13.332C9.16602 13.1345 9.12602 12.9487 9.06352 12.7729L11.491 9.90453C11.6802 9.95953 11.876 9.9987 12.0827 9.9987C12.4115 9.99624 12.735 9.916 13.0268 9.76453L15.026 11.4004C15.0101 11.4878 15.0012 11.5765 14.9993 11.6654C14.9993 12.5887 15.7427 13.332 16.666 13.332C17.5893 13.332 18.3327 12.5887 18.3327 11.6654C18.3327 10.742 17.5893 9.9987 16.666 9.9987Z" fill="#F2F2F7"/>
</svg>
